<?xml version="1.0" encoding="utf-8"?>
<!-- Generator: Adobe Illustrator 16.0.0, SVG Export Plug-In . SVG Version: 6.00 Build 0)  -->
<!DOCTYPE svg PUBLIC "-//W3C//DTD SVG 1.1//EN" "http://www.w3.org/Graphics/SVG/1.1/DTD/svg11.dtd">
<svg version="1.1" id="Layer_1" xmlns="http://www.w3.org/2000/svg" xmlns:xlink="http://www.w3.org/1999/xlink" x="0px" y="0px"
	 width="135px" height="40px" viewBox="0 0 135 40" enable-background="new 0 0 135 40" xml:space="preserve">
<g>
	<g>
		<circle fill="#262626" cx="26.751" cy="11.058" r="0.671"/>
		<path fill="#262626" d="M19.46,10.388c-0.37,0-0.67,0.303-0.67,0.672c0,0.37,0.3,0.67,0.669,0.671
			c0.373-0.001,0.673-0.301,0.673-0.671C20.131,10.691,19.831,10.388,19.46,10.388z"/>
		<path fill="#262626" d="M67.922,12.035c0,0.495,0.301,0.737,0.719,0.737c0.533,0,1.028-0.407,1.028-0.96v-0.728
			C68.504,11.084,67.922,11.366,67.922,12.035z"/>
		<path fill="#262626" d="M58.282,8.998c-0.058-0.175-0.165-0.582-0.33-1.232h-0.02c-0.068,0.281-0.165,0.689-0.311,1.232
			l-0.543,1.708h1.757L58.282,8.998z"/>
		<path fill="#262626" d="M79.039,12.035c0,0.495,0.301,0.737,0.718,0.737c0.534,0,1.029-0.407,1.029-0.96v-0.728
			C79.621,11.084,79.039,11.366,79.039,12.035z"/>
		<path fill="#262626" d="M94.441,9.338c-0.604,0-1.076,0.524-1.146,1.242h2.186C95.48,9.852,95.111,9.338,94.441,9.338z"/>
		<path fill="#262626" d="M96.908,24.102c-1.741,0-2.441,1.683-2.441,3.301c0,1.883,0.922,3.303,2.422,3.303
			c1.399,0,2.381-1.38,2.381-3.341C99.27,25.843,98.588,24.102,96.908,24.102z"/>
		<path fill="#262626" d="M54.849,20.741h-0.04c-0.2,0.78-0.4,1.721-0.64,2.521l-1.04,3.32h3.461l-1.061-3.32
			C55.269,22.441,55.049,21.521,54.849,20.741z"/>
		<path fill="#262626" d="M130.197,0.005H4.729C2.122,0.005,0,2.126,0,4.731v30.542c0,2.604,2.122,4.721,4.729,4.721h125.469
			c2.604,0,4.729-2.117,4.728-4.721V4.731C134.926,2.125,132.801,0.005,130.197,0.005z M94.514,8.61
			c1.202,0,1.961,0.893,1.961,2.242c0.006,0.184-0.004,0.349-0.033,0.475h-3.146c0.021,0.893,0.611,1.397,1.483,1.397
			c0.468,0,0.895-0.078,1.271-0.223l0.163,0.728c-0.443,0.194-0.97,0.291-1.581,0.291c-1.476,0-2.349-0.932-2.349-2.377
			C92.283,9.697,93.177,8.61,94.514,8.61z M89.689,6.553h1.047v6.88h-1.047V6.553z M79.779,9.367c-0.467,0-0.875,0.117-1.232,0.35
			l-0.214-0.69c0.437-0.272,0.979-0.408,1.621-0.408c1.231,0,1.854,0.65,1.854,1.951v1.737c0,0.476,0.021,0.845,0.063,1.126h-0.94
			l-0.078-0.543h-0.027c-0.32,0.437-0.786,0.65-1.378,0.65c-0.845,0-1.446-0.592-1.446-1.388c0-1.164,1.01-1.766,2.756-1.766v-0.087
			C80.758,9.678,80.428,9.367,79.779,9.367z M75.43,6.553h1.049v6.88H75.43V6.553z M68.661,9.367c-0.468,0-0.874,0.117-1.232,0.35
			l-0.213-0.689c0.438-0.272,0.979-0.408,1.621-0.408c1.231,0,1.854,0.65,1.854,1.951v1.737c0,0.476,0.021,0.845,0.065,1.126
			l-0.942-0.001l-0.078-0.543h-0.028c-0.319,0.437-0.786,0.65-1.378,0.65c-0.844,0-1.446-0.592-1.446-1.388
			c0-1.164,1.009-1.766,2.757-1.766v-0.087C69.641,9.678,69.311,9.367,68.661,9.367z M57.33,6.892h1.3l2.117,6.541H59.63
			l-0.611-1.921h-2.125l-0.583,1.921h-1.087L57.33,6.892z M14.472,24.136c0,0.984-0.796,1.778-1.778,1.778s-1.778-0.794-1.778-1.778
			l-0.001-7.444c0.001-0.981,0.796-1.778,1.778-1.778c0.982-0.001,1.779,0.797,1.779,1.777V24.136z M29.158,28.684h-1.296
			l0.001,3.938c0.001,0.979-0.796,1.776-1.778,1.776c-0.98,0-1.777-0.797-1.777-1.775l-0.001-3.938h-2.4l0.001,3.938
			c0,0.979-0.796,1.777-1.778,1.777c-0.98,0-1.777-0.797-1.777-1.776l-0.001-3.938H17.06c-1.048,0-1.897-0.848-1.897-1.896
			l-0.002-11.54l15.893-0.002l0.002,11.538C31.056,27.834,30.204,28.684,29.158,28.684z M15.096,14.633
			c-0.002-2.751,1.646-5.146,4.085-6.404L17.94,5.965c-0.067-0.118-0.023-0.269,0.098-0.334c0.118-0.066,0.268-0.022,0.333,0.099
			l1.255,2.283c1.05-0.467,2.23-0.729,3.476-0.728c1.249-0.001,2.428,0.262,3.483,0.731l1.253-2.29
			c0.064-0.12,0.213-0.163,0.335-0.099c0.12,0.066,0.163,0.217,0.097,0.336l-1.241,2.266c2.436,1.261,4.081,3.652,4.081,6.401
			L15.096,14.633z M33.52,25.913c-0.983,0-1.778-0.795-1.778-1.778l-0.001-7.445c0-0.982,0.795-1.778,1.777-1.777
			c0.982-0.001,1.778,0.796,1.778,1.777l0.001,7.445C35.297,25.118,34.502,25.913,33.52,25.913z M58.229,32.264l-1.22-3.82h-4.281
			l-1.161,3.82h-2.541l4.321-13.48h3.141l4.381,13.48H58.229z M62.605,8.717l0.807,2.494c0.136,0.417,0.252,0.815,0.339,1.193h0.028
			c0.078-0.339,0.195-0.737,0.34-1.193l0.796-2.494h1.099l-1.787,4.716h-1.019L61.48,8.717H62.605z M71.37,32.264h-2.461v-5.5
			c0-1.399-0.521-2.462-1.86-2.462c-0.98,0-1.66,0.7-1.921,1.44c-0.079,0.22-0.1,0.521-0.1,0.8v5.722h-2.48v-6.842
			c0-1.12-0.02-2.061-0.08-2.9h2.16l0.12,1.461h0.061c0.42-0.76,1.48-1.681,3.101-1.681c1.699,0,3.461,1.101,3.461,4.181
			L71.37,32.264L71.37,32.264z M73.044,6.688c0.358,0,0.649,0.262,0.64,0.621c0,0.379-0.271,0.631-0.66,0.631
			c-0.35,0-0.621-0.272-0.621-0.631S72.684,6.688,73.044,6.688z M72.52,8.717h1.049v4.716H72.52V8.717z M80.85,32.264l-0.101-1.539
			h-0.04c-0.58,1.08-1.761,1.76-3.182,1.76c-2.319,0-4.16-1.979-4.16-4.979c-0.021-3.261,2.021-5.2,4.361-5.2
			c1.34,0,2.299,0.561,2.738,1.279h0.04v-5.521h2.46v11.462c0,1,0.04,2.08,0.08,2.74H80.85V32.264z M84.568,12.705h-0.021
			l-0.061,0.728h-0.894c0.027-0.378,0.037-0.806,0.037-1.271V6.553h1.052v2.854h0.021c0.312-0.524,0.813-0.786,1.504-0.786
			c1.136,0,1.933,0.971,1.933,2.387c0,1.464-0.885,2.532-2.088,2.532C85.383,13.54,84.889,13.258,84.568,12.705z M91.068,24.682
			c-0.2-0.039-0.42-0.08-0.721-0.08c-1.182,0-1.979,0.763-2.201,1.861c-0.039,0.221-0.078,0.479-0.078,0.76v5.041h-2.461v-6.602
			c0-1.32-0.021-2.262-0.08-3.141h2.141l0.08,1.858h0.08c0.479-1.38,1.62-2.08,2.66-2.08c0.24,0,0.38,0.021,0.58,0.062V24.682
			L91.068,24.682z M96.809,32.482c-2.762,0-4.882-1.899-4.882-5.021c0-3.201,2.101-5.161,5.041-5.161c2.9,0,4.841,2.04,4.841,5.001
			C101.809,30.884,99.288,32.482,96.809,32.482z M100.521,11.114c0-1.456,0.912-2.494,2.352-2.494c1.355,0,2.271,0.98,2.271,2.417
			c-0.002,1.474-0.943,2.503-2.354,2.503C101.415,13.54,100.521,12.511,100.521,11.114z M106.309,32.264h-2.479v-9.742h2.479V32.264
			z M105.048,21.121c-0.819,0-1.36-0.58-1.36-1.32c0-0.76,0.562-1.34,1.381-1.34c0.841,0,1.359,0.58,1.381,1.34
			C106.447,20.541,105.907,21.121,105.048,21.121z M107.73,10.628v2.805h-1.047v-3.368c0-0.417-0.015-0.864-0.039-1.349h0.922
			l0.049,0.728h0.029c0.276-0.504,0.854-0.825,1.494-0.825c0.985,0,1.639,0.757,1.639,1.989v2.825h-1.047v-2.708
			c0-0.834-0.32-1.252-0.951-1.252C108.158,9.473,107.73,10.007,107.73,10.628z M115.809,32.264l-0.1-1.539h-0.04
			c-0.58,1.08-1.761,1.76-3.181,1.76c-2.32,0-4.161-1.979-4.161-4.979c-0.021-3.261,2.021-5.2,4.36-5.2
			c1.34,0,2.301,0.561,2.739,1.279h0.04v-5.521h2.46v11.462c0,1,0.04,2.08,0.08,2.74h-2.198V32.264L115.809,32.264z"/>
		<path fill="#262626" d="M113.288,24.202c-1.58,0-2.46,1.399-2.46,3.221c0,1.78,0.88,3.08,2.439,3.08c1,0,1.881-0.68,2.121-1.739
			c0.06-0.221,0.078-0.461,0.078-0.721v-1.461c0-0.199-0.021-0.439-0.061-0.641C115.188,24.982,114.408,24.202,113.288,24.202z"/>
		<path fill="#262626" d="M78.328,24.202c-1.58,0-2.461,1.399-2.461,3.221c0,1.78,0.881,3.08,2.441,3.08c1,0,1.879-0.68,2.118-1.739
			c0.062-0.221,0.08-0.461,0.08-0.721v-1.461c0-0.199-0.021-0.439-0.062-0.641C80.229,24.982,79.448,24.202,78.328,24.202z"/>
		<path fill="#262626" d="M102.833,9.386c-0.757,0-1.242,0.708-1.242,1.698c0,0.971,0.495,1.679,1.232,1.679
			s1.231-0.757,1.231-1.699C104.055,10.104,103.57,9.386,102.833,9.386z"/>
		<path fill="#262626" d="M87.074,11.046c-0.002-0.951-0.488-1.602-1.235-1.602c-0.603,0-1.155,0.524-1.155,1.252v0.825
			c0,0.65,0.496,1.184,1.137,1.184C86.605,12.705,87.074,12.065,87.074,11.046z"/>
	</g>
</g>
</svg>
