<?xml version="1.0" encoding="UTF-8"?>
<svg width="166px" height="30px" viewBox="0 0 166 30" version="1.1" xmlns="http://www.w3.org/2000/svg" xmlns:xlink="http://www.w3.org/1999/xlink">
    <!-- Generator: Sketch 41.2 (35397) - http://www.bohemiancoding.com/sketch -->
    <title>Shape</title>
    <desc>Created with Sketch.</desc>
    <defs></defs>
    <g id="Page-1" stroke="none" stroke-width="1" fill="none" fill-rule="evenodd">
        <path d="M157.098591,7.01622579 C154.643292,7.01622579 151.486117,7.36589684 151.090837,7.36589684 L151.090837,29.2000672 L155.958359,29.2000672 L155.958359,21.7480195 C156.668624,21.8648245 157.387258,21.9232983 158.107063,21.922855 C162.579305,21.922855 166,18.9861249 166,14.5138827 C166,9.42844932 162.229634,7.01622579 157.098591,7.01622579 L157.098591,7.01622579 Z M157.536947,17.8458932 C156.99971,17.8582846 156.46473,17.772413 155.958359,17.5925084 L155.958359,11.4023171 C156.211744,11.3592417 157.055516,11.3592417 157.536947,11.3592417 C159.68565,11.3592417 161.132478,12.4107887 161.132478,14.6025674 C161.132478,16.7081953 159.642575,17.8458932 157.536947,17.8458932 L157.536947,17.8458932 Z M140.965579,21.5377101 L145.658266,21.5377101 L145.658266,17.3188527 L140.965579,17.3188527 L140.965579,11.6557019 L146.666738,11.6557019 L146.666738,7.27721216 L136.184208,7.27721216 L136.184208,29.2000672 L147.013875,29.2000672 L147.013875,24.8165097 L140.965579,24.8165097 L140.965579,21.5377101 Z M123.251446,18.0207287 L123.251446,7.27721216 L118.472608,7.27721216 L118.472608,29.2000672 L123.251446,29.2000672 L123.251446,22.1052921 L124.128158,22.1052921 L129.740632,29.2000672 L131.76771,29.2000672 L131.76771,24.1146337 C130.802314,22.7995665 129.530322,21.1322944 128.653611,19.9059118 C129.22626,18.2437074 130.004152,15.82895 130.493185,14.1616778 L132.553203,7.27721216 L127.546319,7.27721216 L124.302993,18.0181949 L123.251446,18.0207287 Z M66.386824,23.3696824 C64.633401,23.3696824 61.7828217,21.7480195 61.7828217,18.2386397 C61.7828217,14.7292598 64.6283333,13.1101308 66.386824,13.1101308 L66.386824,23.3696824 Z M49.3694992,0 L43.496039,3.37508586 L43.496039,5.21719353 L51.125456,5.21719353 L51.125456,0 L49.3694992,0 Z M48.7993833,23.0200113 L48.7993833,29.202601 L53.613695,29.202601 L53.613695,7.27721216 L48.7993833,7.27721216 L48.7993833,16.145681 L45.6092684,20.3011921 L44.8212416,20.3011921 C44.9099263,17.6710577 45.0746264,13.1532062 45.0746264,10.6117564 L45.0746264,7.27721216 L40.2603147,7.27721216 L40.2603147,29.2000672 L42.8473738,29.2000672 L48.0214919,23.0174774 L48.7993833,23.0200113 Z M3.11409949,15.6541145 C3.11409949,20.0376719 2.53384824,24.378154 0,25.2979409 L0,29.9906278 C5.9190695,29.3774365 7.76117717,24.2033184 7.76117717,16.4852167 L7.76117717,11.1489323 L10.9183521,11.1489323 L10.9183521,29.2127364 L15.7326637,29.2127364 L15.7326637,7.27721216 L3.11409949,7.27721216 L3.11409949,15.6541145 Z M71.0744432,13.1202662 C72.8278662,13.1202662 75.6784455,14.7419291 75.6784455,18.2513089 C75.6784455,21.7606887 72.8278662,23.3696824 71.0744432,23.3696824 L71.0744432,13.1202662 Z M71.0744432,27.1957932 C76.3347122,27.1957932 80.545968,23.5115779 80.545968,18.2513089 C80.545968,12.9910399 76.337246,9.3068246 71.0744432,9.3068246 L71.0744432,6.31434982 L66.386824,6.31434982 L66.386824,9.29415536 C61.126555,9.29415536 56.9152993,12.9783707 56.9152993,18.2386397 C56.9152993,23.4989086 61.1240212,27.183124 66.386824,27.183124 L66.386824,29.8132584 L71.0744432,29.8132584 L71.0744432,27.1957932 Z M88.3046113,13.1658755 C87.4177644,11.4023171 86.1128326,9.03316899 85.137301,7.27721216 L83.0316731,7.27721216 L83.0316731,13.2849663 L85.7935677,17.8458932 L82.649062,23.1517714 L82.649062,29.202601 L84.7546899,29.202601 L88.3020775,22.5385801 L89.2218644,22.5385801 L92.7692519,29.202601 L94.8748798,29.202601 L94.8748798,23.1517714 L91.7253064,17.8458932 L94.487201,13.2849663 L94.487201,7.27721216 L92.384107,7.27721216 C91.4187108,9.03063514 90.1036436,11.3997832 89.2269321,13.1532062 L88.3046113,13.1658755 Z M109.969014,7.27721216 L102.468823,7.27721216 L96.5928289,29.2000672 L101.503427,29.2000672 L102.468823,25.3384824 L109.969014,25.3384824 L110.93441,29.1975333 L115.845008,29.1975333 L109.969014,7.27721216 Z M108.912399,21.3096637 L103.52037,21.3096637 L105.757758,12.0585838 L106.634469,12.0585838 L108.912399,21.3096637 Z M31.7440508,7.27721216 L24.2463938,7.27721216 L18.3703998,29.2000672 L23.2809977,29.2000672 L24.2463938,25.3384824 L31.7440508,25.3384824 L32.709447,29.1975333 L37.6200449,29.1975333 L31.7440508,7.27721216 Z M30.6925038,21.3096637 L25.2979409,21.3096637 L27.5353289,12.0585838 L28.4120404,12.0585838 L30.6925038,21.3096637 Z" id="Shape" fill="#FFFFFF"></path>
    </g>
</svg>