<svg xmlns="http://www.w3.org/2000/svg" width="60" height="60" viewBox="0 0 60 60">
  <path fill="#FFF" d="M79.4545455,24.3636364 L79.4545455,37.3181818 L56.9545455,37.3181818 C49.8055134,37.3181818 44,43.0858114 44,50.2727273 L44,68.4261364 C44,69.534588 44.5792024,70.0454545 45.6619318,70.0454545 L67.1818182,70.0454545 L67.1818182,81.6363636 C67.1818898,82.3503425 67.8314757,82.9999284 68.5454545,83 L79.4545455,83 C80.1685243,82.9999284 80.8181102,82.3503425 80.8181818,81.6363636 L80.8181818,70.0454545 L102.636364,70.0454545 C103.350342,70.045383 103.999928,69.395797 104,68.6818182 L104,50.2727273 C104,43.0857568 98.194477,37.3181818 91.0454545,37.3181818 L89.6818182,37.3181818 L89.6818182,33.2272727 L102.636364,33.2272727 C103.350342,33.2272011 103.999928,32.5776152 104,31.8636364 L104,24.3636364 C103.999928,23.6496576 103.350342,23.0000714 102.636364,23 L80.8181818,23 C80.0758305,23 79.4545455,23.749147 79.4545455,24.3636364 Z M82.1818182,25.7272727 L101.272727,25.7272727 L101.272727,30.5 L88.3181818,30.5 C87.604203,30.5000716 86.954617,31.1496575 86.9545455,31.8636364 L86.9545455,48.9090909 L82.1818182,48.9090909 L82.1818182,25.7272727 Z M56.9545455,40.0454545 C62.650968,40.0454545 67.1818182,44.5405114 67.1818182,50.2727273 L67.1818182,67.3181818 L46.7272727,67.3181818 L46.7272727,50.2727273 C46.7272727,44.5405114 51.258123,40.0454545 56.9545455,40.0454545 Z M64.9232955,40.0454545 L79.4545455,40.0454545 L79.4545455,50.2727273 C79.454617,50.9867061 80.104203,51.636292 80.8181818,51.6363636 L88.3181818,51.6363636 C89.0321607,51.636292 89.6817466,50.9867061 89.6818182,50.2727273 L89.6818182,40.0454545 L91.0454545,40.0454545 C96.7418866,40.0454545 101.272727,44.5404295 101.272727,50.2727273 L101.272727,67.3181818 L69.9090909,67.3181818 L69.9090909,50.2727273 C69.9090909,46.1043841 67.9585714,42.4105605 64.9232955,40.0454545 Z M69.9090909,70.0454545 L78.0909091,70.0454545 L78.0909091,80.2727273 L69.9090909,80.2727273 L69.9090909,70.0454545 Z" transform="translate(-44 -23)"/>
</svg>
